<svg width="24" height="24" viewBox="0 0 24 24" fill="none" xmlns="http://www.w3.org/2000/svg">
<path d="M10 17.5C10.2652 17.5 10.5196 17.3946 10.7071 17.2071C10.8946 17.0196 11 16.7652 11 16.5V10.5C11 10.2348 10.8946 9.98043 10.7071 9.79289C10.5196 9.60536 10.2652 9.5 10 9.5C9.73478 9.5 9.48043 9.60536 9.29289 9.79289C9.10536 9.98043 9 10.2348 9 10.5V16.5C9 16.7652 9.10536 17.0196 9.29289 17.2071C9.48043 17.3946 9.73478 17.5 10 17.5ZM20 5.5H16V4.5C16 3.70435 15.6839 2.94129 15.1213 2.37868C14.5587 1.81607 13.7956 1.5 13 1.5H11C10.2044 1.5 9.44129 1.81607 8.87868 2.37868C8.31607 2.94129 8 3.70435 8 4.5V5.5H4C3.73478 5.5 3.48043 5.60536 3.29289 5.79289C3.10536 5.98043 3 6.23478 3 6.5C3 6.76522 3.10536 7.01957 3.29289 7.20711C3.48043 7.39464 3.73478 7.5 4 7.5H5V18.5C5 19.2956 5.31607 20.0587 5.87868 20.6213C6.44129 21.1839 7.20435 21.5 8 21.5H16C16.7956 21.5 17.5587 21.1839 18.1213 20.6213C18.6839 20.0587 19 19.2956 19 18.5V7.5H20C20.2652 7.5 20.5196 7.39464 20.7071 7.20711C20.8946 7.01957 21 6.76522 21 6.5C21 6.23478 20.8946 5.98043 20.7071 5.79289C20.5196 5.60536 20.2652 5.5 20 5.5ZM10 4.5C10 4.23478 10.1054 3.98043 10.2929 3.79289C10.4804 3.60536 10.7348 3.5 11 3.5H13C13.2652 3.5 13.5196 3.60536 13.7071 3.79289C13.8946 3.98043 14 4.23478 14 4.5V5.5H10V4.5ZM17 18.5C17 18.7652 16.8946 19.0196 16.7071 19.2071C16.5196 19.3946 16.2652 19.5 16 19.5H8C7.73478 19.5 7.48043 19.3946 7.29289 19.2071C7.10536 19.0196 7 18.7652 7 18.5V7.5H17V18.5ZM14 17.5C14.2652 17.5 14.5196 17.3946 14.7071 17.2071C14.8946 17.0196 15 16.7652 15 16.5V10.5C15 10.2348 14.8946 9.98043 14.7071 9.79289C14.5196 9.60536 14.2652 9.5 14 9.5C13.7348 9.5 13.4804 9.60536 13.2929 9.79289C13.1054 9.98043 13 10.2348 13 10.5V16.5C13 16.7652 13.1054 17.0196 13.2929 17.2071C13.4804 17.3946 13.7348 17.5 14 17.5Z" fill="white"/>
</svg>
